<svg width="24" height="16" viewBox="0 0 24 16" fill="none" xmlns="http://www.w3.org/2000/svg">
<path fill-rule="evenodd" clip-rule="evenodd" d="M2 2H22V4H2L2 2ZM2 8L2 14H22V8H2ZM0 2C0 0.895431 0.895431 0 2 0H22C23.1046 0 24 0.895431 24 2V14C24 15.1046 23.1046 16 22 16H2C0.89543 16 0 15.1046 0 14V2ZM3 12C3 11.4477 3.44772 11 4 11H6C6.55228 11 7 11.4477 7 12C7 12.5523 6.55228 13 6 13H4C3.44772 13 3 12.5523 3 12ZM9 11C8.44772 11 8 11.4477 8 12C8 12.5523 8.44772 13 9 13H13C13.5523 13 14 12.5523 14 12C14 11.4477 13.5523 11 13 11H9Z" fill="#C6C3C8"/>
</svg>
